<svg height="49" viewBox="0 0 79 49" width="79" xmlns="http://www.w3.org/2000/svg"><g fill="none" fill-rule="evenodd"><path d="m54.018 1.76h10.51l5.01 15.52-15.25.25z" fill="#d8eef5"/><g stroke="#5b6a72" stroke-width="2"><path d="m5.584 25.344v7.928h2.832v7.89h5.65m-8.399-32.152v-7.676h58.477l5.672 15.862 6.008 3.84c.912.62 1.843 1.653 1.843 2.757v17.536h-7.007m-43.564.043h30.534"/><path d="m64.145 47.678a6.522 6.522 0 0 0 6.515-6.514 6.522 6.522 0 0 0 -6.515-6.515 6.522 6.522 0 0 0 -6.515 6.514 6.522 6.522 0 0 0 6.515 6.514zm-43.565 0a6.522 6.522 0 0 0 6.516-6.514 6.522 6.522 0 0 0 -6.515-6.515 6.522 6.522 0 0 0 -6.514 6.514 6.522 6.522 0 0 0 6.515 6.514zm-9.846-27.668h-7.65m-2.751-5.3h13.25m-5.166 18.55h69.21m-23.677-31.927v31.927m0-16.066h15.865"/></g></g></svg>