<svg height="521" viewBox="0 0 1003 521" width="1003" xmlns="http://www.w3.org/2000/svg" xmlns:xlink="http://www.w3.org/1999/xlink"><linearGradient id="a" x1="91.47%" x2="11.03%" y1="12.55%" y2="41.36%"><stop offset="0" stop-color="#43c0a7"/><stop offset="1" stop-color="#08b5e5"/></linearGradient><g fill="none" fill-rule="evenodd" transform="translate(1 1)"><path d="m42.7 76.95 4.64-19.23 15.94 12.15-20.57 7.08zm92.85 164.5 12.1 9.45 1.9-4.55zm12.1 9.45 12.3 3-10.4-7.55zm-12.1-16.67v7.2l20.87-4.36zm0 7.2 14 4.92 6.87-9.28-20.87 4.37zm-31.68-22.57 31.68 15.37-6.56-15-25.13-.37zm31.68 15.37 20.87 2.84-8.14-4.1zm12.73-1.26 8.14 4.1-1.65-15.6-6.5 11.5zm6.5-11.5 1.64 15.6 7.77-15.6h-9.43zm1.64 15.6-6.88 9.28 4.6-2.5zm29.7-30.07-5.9-19.14 9.14 14.7-3.25 4.44zm-36.58 39.35 10.4 7.56 12.52-7.73-22.92.18zm19.22 16.13-8.8-8.57 12.5-7.73zm-19.22-16.13 4.6-2.5 18.32 2.32zm30.68-58.5 9.14 14.72v-20.52zm79.33-78.9-9.93 20.8 2.2-35.93zm26.8-106.38 11.85 9.32 30.76-8.22-42.62-1.1zm36.33 55.35 13.95 14.78 13.82-18.7-27.77 3.92zm7.23-51.7 33.2-3.65-33.2 20.57v-16.94zm20.55 47.77-20.56-30.86 1.86 23.16 18.7 7.7zm-20.56-47.79v16.94l-25-7.07 25-9.86zm38.06 45.02 33.43-15.55-24.67-11.9-8.77 27.45zm-283.73 26.55 7.4 38.38 26-28.75zm57.5 113 38.5-2.9-26.12-33.63-12.36 36.53zm38.5-2.9 9.13-5.82-35.25-27.8 26.12 33.6zm9.13-5.82 21.64-16.88-56.9-10.93 35.26 27.8zm-118.78-12.38 21.06-53.52-22.52 30.06 1.46 23.47zm0 0 21.06-53.52 24.13 22.03-45.2 31.5zm21.06-53.52 25.98-28.75-1.85 50.78zm25.98-28.75 32.16 24.43-34 26.35zm173.15 18.12 3.95 17-16.67-4.2zm-141 6.3 4.34 42.42-38.33-16.06 34-26.35zm200.69-57.82-20.56-30.87 31.37 7.7-10.82 23.17zm0 0 17.5-2.78-6.68-20.37-10.83 23.15zm-20.56-30.87 33.2-20.57-1.83 28.28-31.36-7.7zm33.2-20.57 13.63 21.2-15.46 7.08 1.82-28.28zm4.86 48.65 8.77-27.44-15.46 7.07 6.7 20.37zm-4.86-48.64 13.63 21.2 17.94-23.77zm13.63 21.2 17.94-23.77 13.83 16.7-31.77 7.08zm0 0 24.66 11.9 7.1-18.96-31.77 7.08zm17.94-23.77 36.87 5.14-23.04 11.56zm-62.9 46.3 18.68 7.7-27.77 3.92 9.08-11.62zm-138.97-19.3-16.7-.65-12.23 5.06zm-12.23 5.75 34.45-4.54-6.6 14.22-27.85-9.67zm7.84-12.7 33.18 3.1-18.94 1.76-14.23-4.84zm12.12 53.42 29-16.3-11.8-9.66-17.2 25.97zm21.92-38.6 3.96-6 9-.66-12.96 6.67zm-4.72 12.64 11.8 9.66 1.27-21.85-13.08 12.2zm24.67-27.44-5.4 3.72-7.9-3.72zm-11.6 15.23-1.3 21.86 11.8-7.5-10.5-14.35zm9.7-8.3h9.77l-13.27 5.75zm9.12 4.4 21.06 6.1-21.06 1.04zm0 0 21.06 6.1 7.37-8.62-28.43 2.53zm2.75-6.58h25.68l-9.23-3.05zm4.4 15.75-15.47 9.08 11.9 1.12zm16.82-22.45 12.74-15.55-22.5 6.3 9.75 9.25zm-2.92 19.38 7.37-8.62v19.32zm7.37-8.62v19.32l10.56-13.33-10.55-6zm-4.46-10.76 12.74-15.55-1.06 16.4-11.7-.85zm4.45 30.08 6.1-2.9 4.46-10.43-10.55 13.33zm8.3-45.63 11.85 9.32-12.92 7.06 1.06-16.4zm-2.2 42.74 4.46-10.43 11.67 15.9-16.12-5.46zm0 0 3.1 5.92 13.02-.45-16.12-5.46zm3.1 5.92 7.42 4.05 5.6-4.5zm-28.63 5.9 19.43-8.92 4.7 15.53-24.13-6.6zm19.43-8.92 6.1-2.9-1.4 18.43zm6.1-2.9 3.1 5.92-4.5 12.5 1.4-18.4zm-51 16.04 7.8-7.98 6.92 7.44-14.7.54zm35.67 18.94-4.35-13.76-12.22-1.57zm-17 13.54 17-13.54-16.57-15.33-.42 28.87zm0 0 17-13.54 13.92 6.5-30.9 7.04zm17-13.54 13.6-5.1.32 11.6zm-26.4 5.81 9.85-21.15-.42 28.87-9.44-7.72zm17.15 22.85 19.48.68-27.2-15.8zm19.48.68 14.87-11.3-42.07-4.5zm-27.2 25.94 21.7-12.5-12.64 3.12-9.07 9.37zm30.9-48.78 11.17 11.53-42.07-4.5 30.9-7.04zm-40.34-.7 9.43 7.72-30.25 12.12 20.8-19.84zm7.22 43.64 2.2-35.92-30.24 12.12zm-132-42.34 30.04-48.84 18.2 42.42zm0 0 32.16 24.43 16.08-30.85zm82.9-13.93v10.74l-34.66-3.22 34.66-7.5zm-52.86-34.9 18.2 42.4 6.66-34.48-24.86-7.94zm16.2-7.16 28.95-4.4-25.7 8.82-3.23-4.4zm2 49.58 34.66-7.5-28-27zm14.7-48.23 27.86 9.67-28.65-1.13.8-8.55zm19.96 40.72 17.2-25.96-45.2-1 28 26.97zm-50.74 38.36 4.33 42.4 41.15-28.04-45.47-14.37zm0 0 16.08-30.85 29.4 45.2zm4.33 42.4 56.9 10.94-15.75-38.98-41.14 28.04zm11.77-73.23 34.66 3.2-5.27 42-29.4-45.2zm45.14 84.2 13.1-20.66-28.85-18.33 15.74 38.95zm-10.48-81 21.06 21.76-26.33 20.25 5.27-42zm0 0 21.06 21.76v-13.3l-21.06-8.45zm21.06 21.76 28.04 23.8-54.37-3.55 26.33-20.26zm2.5 38.58 25.54-14.78-54.37-3.55 28.84 18.32zm-224.09-51.92 42.7-15.67-16.4 2.9-26.3 12.79zm42.7-15.67 4.64-19.23-21.04 22.14 16.4-2.9zm-19.57-10.43 24.22-8.8-21.05 22.14-3.2-13.34zm24.22-8.8 15.94 12.15 19.1-14.6zm0 0 30.1-21.1 4.93 18.65zm0 0 30.1-21.1-25.96 7.2zm15.94 12.15 20.95 7.9-1.86-22.5-19.1 14.6zm14.15-33.24 16.76-.32-11.83 18.97-4.94-18.64zm4.94 18.64 1.86 22.5 27.2-14.8zm0 0 11.82-18.97 17.23 26.7-29.07-7.7zm1.86 22.5 33.4 9.63-6.2-24.42-27.2 14.8zm9.96-41.47 27.13 5.48-9.9 21.2zm23.42 51.1 30.04-48.84-36.22 24.42zm3.7-45.62 26.34-3.22-36.22 24.42 9.9-21.2zm-5.55 96.4 38.34 16.06-35.84 21.18zm-11.9 80.68 25.12.36-10.74-43.8-14.4 43.44zm25.12.36 4.08-16.65-14.82-27.15 10.73 43.8zm4.08-16.65 8.66-11.8-23.48-15.35zm79.38 33.3 2.42-2.3-6.3-6.22zm2.42-2.3 8.92-.96-15.23-5.25 6.3 6.22zm-60.77-79.33-12.36 36.53-23.48-15.35 35.85-21.18zm-50.23 64.62 31.68 15.37-6.56 10.4-25.13-25.77zm31.68 15.37v7.2l-6.56 3.2 6.55-10.4zm-6.56 10.4-25.13-25.77-.8 9.8 25.94 15.98zm-25.13-25.77 14.4-43.44-29.12 7.9zm0 0-14.71-26.56v-8.98l14.72 35.54zm-33.3-49.2 8.9 27.32 2.05-16.27-10.94-11.03zm0 0 45.2-31.48-34.25 42.53-10.94-11.03zm8.9 27.32 12.17 18.83-10.12-35.1-2.04 16.29zm9.68-13.66 29.1-7.9-36.73 5.3zm26.62-45.14 2.5 37.24-36.75 5.3zm69.24 76.68 20.23 11.97h-8.98zm0 0-8.98.58 2.22 1.68zm0 0 11.25 11.97-18-9.7zm-8.98.58-5.05 5.06 7.27-3.38zm-16.07 38.47 4.24 12.54 4.56-3.96-8.8-8.57zm8.8 8.58-4.56 3.96 11.86 8.96zm0 0 7.3 8.83v4.1l-7.3-12.92zm16.7 5.06-9.4 3.77v4.1l9.4-7.86zm0 0-.33 2.66-9.06 5.2 9.38-7.86zm0 0-.33 2.66 4.25 7.9-3.93-10.56zm0 0 6 5.28-2.08 5.27-3.93-10.56zm74.1-158.6-9.93 20.8 9.93-3.28v-17.5zm570.93 305.4-12.96-23 45.6 8.07-32.64 14.95zm0 0 32.65-14.93v28.7l-32.65-13.75zm32.65-14.93v28.7l41.9-16.2zm80.4 83.24 6.52 6.67 27.5-25.73-34 19.07zm-38.5-70.75 34.98 5.27 1.53-12.23-36.5 6.95zm-41.9-12.5 41.9 12.5 2.8-37.06-44.7 24.57zm41.9 12.5 36.5-6.96-33.7-30.1-2.8 37.05zm12.86-63.45 23.63 56.5-33.7-30.1 10.06-26.4zm-44.1 14.66-10.67 36.3 29.26-36-18.6-.3zm-10.67 36.3 44.7-24.56-15.44-11.44-29.27 36zm80.4-53.8-22.16-29.02-7.2 24.3 29.37 4.7zm-69.73 17.5 18.6.3-13.16-10.15-5.44 9.86zm18.6.3 6.27-11.7-19.43 1.55 13.15 10.15zm-74.88 27.94 45.6 8.07-19.4-18.1-26.2 10.04zm56.28-28.23-10.67 36.3-19.42-18.1 30.1-18.2zm29.78 99.8-14.92 15.52 1.6-13.1 13.32-2.4zm-29.78-99.8-12.32-1.9-17.77 20.1 30.1-18.2zm-10.67 65 51.7 23.3 10.68-14.26-62.37-9.04zm86.92 61.2 28.3-20.2-.8-5.53-27.5 25.74zm-86.92-61.2 41.9-16.2 20.48 25.24-62.37-9.04zm41.9-16.2 34.98 5.27-14.5 19.97-20.48-25.25zm-74.55 2.45-12.96-23-5.65 50.7 18.6-27.7zm158.8 39.8 10.72 1.6-18.72 12.72 8-14.33zm0 0 10.72 1.6-8.7-16zm-158.8-39.8 32.65 13.75-51.26 13.96 18.6-27.7zm32.65 13.75 51.7 23.3-27.9 4.45zm-438.92-162.63 25.96-76.43-57.47 29.84 31.5 46.6zm0 0 23.14 17.97-26.23 4.5 3.1-22.48zm87.75 78.98 40.17-5.78 6.18-37.9zm-33.32-55-1.02 23.17 65.25-34.96-64.22 11.78zm-1.02 23.17 34.35 31.83 30.9-66.8-65.24 34.97zm34.35 31.83 46.35-43.67-15.45-23.1-30.9 66.78zm30.9-66.8 15.45 23.13v-46.23l-15.45 23.12zm15.45-23.1 18.24-9-9.06-24.64-9.18 33.63zm-10.4-71.7 6.07 11.97h-32.13l26.05-11.96zm0 0 6.07 11.97 4.3-12.64-10.38.7zm11.2 12.36-5.13-.4 4.3-12.63.82 13.04zm-5.13-.4 13.5 26.1-45.63-26.1zm4.33 59.73 9.18-33.63-45.64-26.1zm-36.46-59.72 26.05-11.96-33.46-5.3 7.4 17.25zm-7.4-17.25 7.4 17.25-12.37-7.58zm-64.28 11.47-7.1-21.38-12.07-3.69 19.16 25.05zm-57.47 29.83 57.46-29.83-35.43 2.12-22.04 27.7zm38.3-54.88 19.16 25.05-35.43 2.12 16.27-27.19zm-38.3 54.9 31.5 46.57-31.5-14.14v-32.45zm14.82 47.2 16.68-.63-31.5-14.14zm-14.83-14.76 14.82 14.77-2.47 9.1-12.36-23.87zm14.82 14.77 16.68-.64-19.15 9.74zm13.6 21.84 3.08-22.48-19.15 9.74 16.06 12.73zm57.5 1.5 64.23-11.78-49.44-40.47-14.77 52.25zm6.73-113.9 24.12 11.7-16.06 49.96-8.05-61.65zm24.12 11.7 12.37 7.58-28.43 42.38 16.07-49.96zm12.37 7.58 36.46 59.72-64.9-17.34zm21 82.84 15.46-23.13-64.9-17.34 49.45 40.46zm-118.63-12.19 23.14 17.97 46.07-46.24-69.2 28.26zm0 0 25.96-76.43 43.25 48.16-69.2 28.26zm23.14 17.97 31.3 6 14.77-52.24-46.06 46.24zm2.82-94.4 35.2-13.5 8.05 61.66-43.24-48.16zm108.14 65.5 18.24-9 11.32 9.24-29.56-.23zm0 46.24v-46.23l34.34 10.33zm0-46.23 29.56.24 4.78 10.1-34.34-10.33zm0 46.24 34.34-35.9 10.13 27.56-44.47 8.35zm34.34-35.9 23.7-4.62-13.57 32.18zm-40.52 73.8 6.18-37.9 18.54 21.85zm6.18-37.9 44.47-8.34-25.93 30.2-18.54-21.85zm18.54 21.85 4.46 41.43-29.18-25.38zm-24.72 16.05 29.18 25.38-19.9 19.72zm-42.32 102.94 22.24-3.18-27.5-31.7 5.25 34.88zm22.24-3.18 20.08-21.68-47.58-10.02zm20.08-21.68.62-11.9-48.2 1.88zm-57.54-24.15 9.96 14.13 19.15-39.82-29.12 25.7zm0 0 17.37-48.17 11.74 22.48-29.12 25.7zm9.96 14.13 48.2-1.9-29.05-37.92-19.16 39.82zm7.4-62.3 40.18-5.78-28.43 28.26zm49.45 39.32-37.7-16.84 28.42-28.26 9.27 45.1zm-8.66 21.1 9.5-4.26-38.55-33.68 29.04 37.93zm9.5-4.26-.85-16.84-37.7-16.84 38.54 33.68zm-84.63-88 34.35 31.84-19.42 4.3-14.92-36.13zm14.93 36.14 19.42-4.3-26.78 29.6zm2.05 43.87 17.37-48.17-26.78 29.6 9.4 18.57zm0 0 9.96 14.13-7.7 5.34zm9.96 14.13 5.25 34.88-12.97-29.54 7.7-5.34zm84.3-5.12 4.4-32.13 12.7 15.9zm0 0 10.16 1.96 6.95-18.2-17.12 16.24zm4.4-32.13 12.7 15.9-4.62-15.9h-8.07zm0 0 18.7-14-10.62 14h-8.07zm12.7 15.9 6-29.9-10.62 14 4.63 15.9zm-155.77-196.36 35.2-13.5-4.56-15.56-30.64 29.07zm0 0 30.63-29.07-37.73 7.7zm27.45 123.58 34.35 31.83 30.9-66.8-65.24 34.97zm-46.62-148.63 19.16 25.05-35.43 2.12 16.27-27.19zm16.34 119.45 31.3 6 14.77-52.24-46.06 46.24zm2.82-94.4 35.2-13.5 8.05 61.66-43.24-48.16zm101.96 149.63 29.18 25.38-19.9 19.72zm10.12 61.94-.85-16.84-37.7-16.84 38.54 33.68zm-112.08-211.57 30.64-29.07-37.73 7.7 7.1 21.37zm-272.66 139.8 40.02 48.15-20-13.48zm46.67 137.62 10.74 31.92 14.7-14.6-25.43-17.33zm10.74 31.92 16.83 9.1-2.12-23.7-14.7 14.6zm16.83 9.1-2.12-23.7 7.36 6.3-5.23 17.4zm38.5-101.3 23.76-15.51 5.6-35.53-29.37 51zm-13.34-117.21 3.13 18-22.5-24.9zm-19.37-6.9 19.37 6.9-10.47-7.12zm-68.16-4.03 18.46-19.53 1.13 47.8-19.6-28.28zm28.15 98.93 1.77 47.8 34.77-4.76-36.55-43.04zm41.42 80.73 8.97-15.53-13.83-22.16 4.87 37.7zm0 0 8.97-15.53 2.1 11.88-11.06 3.65zm8.97-15.53h9.83l-23.66-22.16 13.84 22.16zm-50.38-65.2 36.55 43.04 11.12-38.84-47.68-4.2zm0 0 37.17-27.62 10.5 31.82-47.68-4.2zm36.55 43.04 23.66 22.16-12.54-61-11.13 38.84zm23.66 22.16 12.5-36-25.04-25 12.53 61zm12.5-36 29.36-51.03-54.4 26.02 25.03 25zm-112.74-96.6v19.25l30.84 15.4-30.84-34.66zm0 0 31.46-3.25-.62 37.9-30.84-34.66zm0 19.25 40.02 48.15-9.18-32.75zm31.46-22.5 45.73 43.03-46.36-5.13.62-37.9zm8.56 70.65 37.17-27.62-46.36-5.13 9.18 32.75zm17.4 121.4 16.8 9.1-3.83 6.8-13-15.9zm16.8 9.1 18.28 10.85-22.1-4.03 3.83-6.82zm-32.43-82.7 4.87 41.67 15.07-29.74-19.95-11.94zm0 0 34.77-4.76-14.83 16.7-19.95-11.94zm4.87 41.67 25.44 17.32-10.36-47.06-15.07 29.73zm25.44 17.32 9.34-26.07-19.7-21 10.37 47.07zm4.47-63.76 4.87 37.7-19.7-21zm-46.24-161.5 1.13 47.8 25.34-14.12-26.47-33.67zm0 0 11.02 2.37 15.45 31.3-26.47-33.66zm1.13 47.8 45.73 43.04-20.4-57.16-25.34 14.13zm9.9-45.43 24.1 4.97-8.66 26.34-15.45-31.3zm24.1 4.97 14.57 16.22-23.23 10.12 8.65-26.34zm11.73 83.5 25.33-42.4-45.73-14.76zm2.83-67.28 22.5 24.9-45.73-14.78zm-2.84 67.28 10.5 31.82 38.94-54.3-49.45 22.48zm0 0 25.33-42.4 24.1 19.92-49.44 22.48zm10.5 31.82 54.4-26.03-15.46-28.28-38.95 54.3zm14.83-74.2 16.07 3.85 8.04 16.05-24.1-19.9zm16.07 3.85 33.28 14.06-25.24 2zm23.5 44.32 11.72-18.72-27.18-9.56 15.45 28.27zm9.78-30.27 1.94 11.55-27.18-9.56 25.24-2zm-151.86-15.29 31.46-3.23-18.82-14.53-12.64 17.77zm11.87-31.5 19.6 28.27-18.83-14.53-.77-13.75zm18.46-19.53-18.46 19.52 2.1-5.28 16.36-14.25zm353.88-128.6 1.43-9.04 11.53 17.22-12.95-8.17zm-18.1 14.94 10.96-4.16-3.03 23.92-7.92-19.75zm-10.5 14.7-3.74-13.17 22.17 18.23-18.43-5.07zm18.43 5.06-22.17-18.23 14.25-1.52 7.93 19.76zm0 0 3.03-23.92 11.26 5.2-14.3 18.72zm0 0 14.3-18.7-4.12 15.2-10.17 3.5zm14.3-18.7 10.4-1.75-14.52 16.96 4.12-15.2zm3.47 63.9 17.65 29.16 29.1-26.77-46.75-2.38zm54.87 32.55-32.45 13.08-4.77-16.46 37.22 3.4zm0 0-8.12-30.15-29.1 26.77 37.22 3.4zm0 0 17.97-24.1-26.1-6.05 8.13 30.16zm8.13-31.1 9.84 7-26.1-6.05 16.26-.94zm0 0-2.56-7.3-13.7 8.25 16.26-.94zm-63-1.43 46.75 2.38-31.8-13.47-14.95 11.1zm-11.02-27.66 3.43-21.04 42.14 25.75-45.56-4.7zm0 0 11.02 27.67 14.95-11.1-25.97-16.56zm0 0 25.97 16.58 19.6-11.87-45.57-4.7zm45.56 4.7-19.6 11.88 19.6-1.67v-10.2zm-19.6 11.88 31.8 13.47-12.2-15.14-19.6 1.68zm38.95 2.26 6.54-2.26-17.53-3.93 11 6.2zm-11-6.2 17.54 3.94-.6-10.4-16.93 6.47zm17.54 3.94-.6-10.4 33.4 17.46zm0 0 3.8 5.7 29 1.36zm48.26 25.73-15.47-18.7 16.3-4.8-.84 23.5zm5.36-1.8 15.08 14.07 14.18-35.76-29.26 21.7zm89.3 33.7-6.24-17.14 10.35 13.96-4.12 3.17zm0 0 4.1-3.18-4.1 19.82v-16.65zm-60.86 20.7v-9.98l7.87 10.87-7.87-.9zm60.85-4.06 17.3 20.5-13.5-21.87-3.8 1.38zm17.3 12.3v8.2l-13.5-21.87 13.5 13.7zm-17.3-12.3 4.12-19.82-.33 18.45-3.8 1.38zm-6.23-33.78 10.35 13.96 6.86-3.24-17.2-10.72zm10.35 13.96 6.86-3.24 10 15.1zm17.16 19.33-.3-7.5 13.6-3.97-13.3 11.46zm-10.3-22.59 10 15.1 8.73-22.83-18.73 7.72zm10 15.1 13.6-4-4.87-18.83-8.74 22.8zm-27.2-25.82 17.2 10.72 7.1-18.5zm88.16 34.96 8.22 9.05-3.65-25.84-4.58 16.8zm-14.17-32.03 18.74 15.23-15.77-25.2zm-56.8 7.8 18.73-7.74-11.62-10.8-7.1 18.52zm-17.2-10.73 24.3-7.8-43.63-11.2 19.32 19zm24.3-7.8-43.63-11.2 53.33-.48-9.7 11.7zm18.5-10.35-2 4.75-6.8-6.08zm0 0-8.8-1.33 25.5-4.6zm-6.87 21.14 4.87 18.83-.62-11.1-4.24-7.74zm23.56-27.08 11.94-23.1-16.65-24.24 4.72 47.34zm-4.7-47.34 8.33-8.22-17.83-5.4zm2.37-14.3-2.96-8.45 7.8 3.72-4.85 4.74zm-2.4 14.3 16.66 24.25-3.97-11.97-12.7-12.28zm13.23-16.42 7.06 6.48-5.83-1.63-1.24-4.84zm7.06 6.48 4.56 11.93 8.5-3.94-13.07-8zm-13.07-9.1 6 2.62 5.52-.83-11.52-1.78zm6 2.62 7.06 6.48-1.55-7.3-5.52.82zm7.06 6.48 13.06 8-14.6-15.3 1.53 7.3zm-20.86-12.8 7.8 3.7 16.7-12.1zm7.8 3.7 11.5 1.8 5.2-13.9zm11.5 1.8 4.9-5.07.3-8.82-5.2 13.88zm5.2-13.9 9.25.73 4.77-20.92-14.04 20.2zm0 0 14.03-20.2-6.16-12.5zm0 0 7.87-32.7-8.6-8.33.73 41.05zm-10.9-61.08 28.88.85 1.43-9.04-30.3 8.2zm48.9-10.06-1.74-12.26 7.9 19.46zm0 0 6.15 7.2-9.88 14.04zm-3.73 21.24 21.66 20.38-.8-20.38zm0 0 9.88-14.04.9 8.73-10.78 5.3zm0 0h20.86l-10.1-5.3zm2-33.5 7.88 19.46 5.25-18.5-13.14-.96zm7.88 19.46 30-7.2-24.75-11.3zm-7.9-19.46 13.15.97v-12.34l-13.14 11.36zm13.15.97 36.88 4.1-36.88-16.43zm-30 13.16 16.86-14.13 1.76 12.26-18.6 1.87zm0 0 12.1 3.53 6.52-5.4-18.6 1.87zm-30.3 8.2 30.3-8.2-22.4-26.34-7.88 34.52zm30.3-8.2 16.86-14.13-39.28-12.2 22.43 26.33zm16.86-14.13 13.14-11.36-52.42-.83 39.28 12.2zm-47.16 22.31 7.88-34.5-9.52-4.58zm-49.32-45.54 47.68 6.46-43.93-.62zm0 0 3.75 5.84h-26.23zm-35.56-2.34 13.1 8.18-24.36-5.84zm-39.12-7.34-3.47 7.34-27.35-10.63 30.82 3.3zm-56.42 3.6 25.6-6.9-23.72 14.93-1.88-8.02zm-68.1-3.4 23.34-2.23-23.34 12.47zm68.1 3.4 1.88 8.03-27.16 1.6zm-35.58 3.74 10.3 5.88-5.93 11.44zm4.37 17.32-4.37-17.32-4.38 8.18zm-96.22-5.7 30.53 8.24-18.9 3.57-11.63-11.8zm3.33 15.37 17.1 4.67-8.8-8.23zm24.8-2.6 2.4-4.53-18.9 3.57 16.5.97zm-28.13-12.76 11.62 11.8-10.9-.98-.72-10.83zm3.33 15.36 8.3-3.56-10.92-.98 2.62 4.53zm0 0 17.1 4.67-11.6 4.67zm73.5-9.67h19.4l-21.3 75.87zm0 0h19.4l-26.8-6.55 7.4 6.56zm59.35 160.78 16.3-4.8-24.42-73.97 8.13 78.77zm-34.03-172.22 27.16-1.6 12.48 27.9zm27.16-1.6 23.72-14.9-11.24 42.8zm23.72-14.9 27.35 10.62-38.6 32.18zm-24.98 109.94 24.43 73.97 48.62-39.26-73.04-34.7zm24.43 73.97h33.8l14.82-39.26zm33.8 0 18.1 21.15-3.28-60.42-14.83 39.26zm-58.22-73.97 73.05 34.7-31.22-50.6-41.82 15.9zm73.05 34.7 14.36-51.24-45.57.65 31.22 50.6zm78.85 72.9 3.6-7.34-8.7 2.46 5.1 4.87zm-78.85-72.9 14.36-51.24 32.47 31.14-46.82 20.1zm-126.17-40.84 21.3-75.87 30.58 28.5zm0 0 53.13 6.14-1.24-53.52-51.88 47.38zm269.71 4.78-2.94-12.4-16.27-17.24zm-248.43-80.64 5.93-11.44 24.66 39.93-30.6-28.5zm5.93-11.44 39.64 26.3-14.98 13.63zm25.9 93.45 41.83-15.9-43.07-37.62 1.25 53.52zm13.74-67.15 28.1 51.26-43.08-37.63zm73.67 50.6 20.6-74.6 22.48 30.5-43.07 44.1zm0 0 32.47 31.15 10.6-75.26-43.06 44.13zm140.47 196.82 31.9 33.53 7.2-24.3zm-119.88-271.42h26.23l-3.75 30.5-22.47-30.5zm26.23 0 43.93.62-47.68 29.87 3.75-30.48zm5.75-12.75-20.9 2.58 3.9-5.15zm-20.9 2.58-15.68-4.45 19.57-.7-3.9 5.15zm59.08 10.8 1.64 39.07-49.32-9.2 47.68-29.88zm-5.3 55.8 6.94-16.73-49.32-9.2 42.4 25.94zm-271.33-37.61 25.45-10.38 3.75 29.2zm25.45-10.38 21.8.7-18.05 28.5zm19.9 76.58 1.9-75.87-18.05 28.5 16.16 47.37zm66.87-61 28.1 51.25 11.86-28.55zm0 0 38.6-32.2 1.36 54.9zm28.1 51.25 45.57-.65-33.7-27.9zm125.03 228.17 46.17-1.44-44.48-6.1-1.7 7.55zm-27.65-10.3 5.15-11.3-20.2-11.3zm61.84-20.43-11.1-2.03 11.1 17.06v-15.04zm-34.2 30.73 1.7-7.56-26.32-.2 24.63 7.75zm20.4-11.24 2.7-21.5 11.1 17.06-13.8 4.45zm-78.67-44.22 15.57 22.56 4.98-9.44zm15.57 22.56 20.2 11.3-15.22-20.76-4.98 9.44zm-71.84-278.72 31.33 2.34-29.96 52.55-1.37-54.9zm31.33 2.34 24.35 5.84-54.3 46.7 29.96-52.54zm-91.03-22 9.1-2.3 5.77 6.8zm14.87 4.5-5.77-6.8 25.06 6.8h-19.3zm79.9 97.95 20.6-74.6-54.3 46.7zm-137.95 76.37 8.37 7.95 4.43-33.37-12.8 25.43zm8.37 7.95 16.93-6.47-12.5-26.9-4.42 33.37zm16.93-6.47 33.4 17.46-45.9-44.36zm33.4 17.46-8.12-78.77-37.77 34.4 45.9 44.37zm-87.87-67.7 1.58 6.07 24.45 1.76-26.04-7.8zm26.62-17.2 53.13 6.13-38.35 17.84-14.77-23.97zm15.35 40.54 37.78-34.4-38.35 17.83.58 16.58zm-30.97-140.88-9.64 12.4 9.64-2.16zm0 10.24-9.64 2.16 16.57 4.98-6.92-7.14zm287.62 110.76 14.6-5.12-16.23-7.28zm-288.18-68.05 16.16 47.38-21.3-22.8zm-58.06 2.77 8.1-12.25 11.63-4.67-19.74 16.92zm30.6 5-10.88-21.92-1.3 43.28 12.15-21.35zm-12.16 21.38 21.62 9.8-9.47-31.15zm1.3-43.28 9.12-4.67 1.73 26.6-10.85-21.95zm9.12-4.67 29.2 18.82-27.47 7.78zm11.2 57.76 12.86-14.37-22.33-16.8 9.47 31.16zm18-38.95-5.14 24.58-22.33-16.8zm256.38 132.74-1.04 14.33-3.92-8.08 4.95-6.25zm-67.23-64.63 10.6-75.26 26.85 51.9-37.45 23.37zm0 0 37.45 12.58v-35.95zm10.6-75.26 42.4 25.96-15.55 25.95-26.84-51.9zm26.85 87.85 8.92-9.12-8.92-26.82v35.95zm8.92-9.12 24.5-8.38-33.42-18.44 8.92 26.83zm6.63-52.77 17.13 3.35-32.68 22.6 15.55-25.94zm17.13 3.35.73 41.05-33.4-18.44 32.67-22.6zm-116.95 66.08 3.3 60.4 42.06-38.52-45.35-21.88zm0 0 46.82-20.1-1.46 41.98-45.35-21.88zm150.25-17.53-2.24 18.42 12.48 5.9zm-2.24 18.42-16.8 10.1 29.28-4.2zm-16.8 10.1 9.4 3.4 19.88-7.6zm19.04-28.52 10.24 24.3-3.36-18.6zm-14.34 39.4 4.7-7.5-9.4-3.37 4.7 10.88zm-132.62 38.53 16.36-1.9 25.7-36.64-42.06 38.53zm43.53-80.53 37.45 12.58-38.9 29.4zm-27.17 78.63 53.33-.48-27.62-36.16-25.7 36.63zm53.33-.48 25.5-4.6-53.12-31.56 27.63 36.16zm11.3-65.57 9.48 13.63-48.4 15.78 38.92-29.4zm9.48 13.63 4.72 47.34-53.1-31.56 48.4-15.78zm-122.76 68.92 14.18-35.76-1.87 43.4-12.3-7.63zm14.18-35.76 18.12 21.15-20 22.25zm-29.26 21.7 17.4 50.96-2.32-36.9-15.08-14.05zm17.4 50.96 10-9.57-12.32-27.32 2.32 36.9zm10-29.25v19.68l-12.32-27.32 12.3 7.65zm-147.65-123.52 11.53 17.22 14.28-6.84-25.8-10.37zm4-8.44 12.85-14.37 8.96 33.18-21.82-18.8zm7.53 25.65 26.03 7.8-11.76-14.64-14.28 6.85zm5.32-40.02 21.3 22.8-12.34 10.38-8.96-33.17zm-18.27 63.03 14.54-16.95 23.23 14.34-37.76 2.62zm0 0 42.14 25.75-4.37-28.36-37.76 2.62zm14.54-16.95 24.45 1.76-1.23 12.58-23.23-14.33zm27.6 42.7 12.8-25.42-17.17-2.94 4.37 28.37zm-76.78-110.57 19.74-16.93-16.6 28.78-3.14-11.86zm18.44 26.36 1.3-43.28-16.6 28.78zm296.17 182.01-6.85-6 1.16 12.67 5.7-6.67zm-10.5 36.25 9.9-20.14-5.1-9.43-4.8 29.58zm-21.28-22.03 3.26 17.45 9.8-24.18-13.07 6.72zm24.92-20.2 1.16 12.65-13.02.82 11.86-13.5zm-21.66 37.65 9.8-24.18 13.02-.83-22.82 25zm0 0 18.02 4.58 4.8-29.58zm-283.8-169.94 14.25-1.52-10.5-2.85-3.74 4.38zm59.58-15.12-21.82-18.8-4 8.43 25.82 10.38zm-30.66 50.9 11.02 27.67-10.2-14.63-.82-13.03zm153.52 94.94 1.23 4.67 6.64-3.77zm60.85-4.06 10.98 21.48 6.33-1-17.3-20.48zm10.98 21.48 6.33-1 3.2 6.2zm-167.57-149.67-14.3-11.98-.47-12 14.77 24zm67.3 77.85-4.52-21.7h33.8l-29.27 21.7zm0 0-5.36 1.8.83-23.5zm83.07 16.55-8.18 3-11.14-22zm-220.92-136.62 17.63 18.25-10.18 3.8zm-18.44-31.23 8.1-7.38-15.85-8.9 7.76 16.28zm0-21.26 2.62 4.53-10.37.44 7.76-4.98zm8.1 13.87-5.48-9.34-10.37.44 15.87 8.9zm10.34 38.6 7.45 22.05-12.3-.57 4.85-21.47zm0 0 21.62 9.82-4 8.43zm-16.14 43.76 3.74-4.38-17.9-27.2zm-14.16-31.6 14.16 31.6-12.1-11.38-2.06-20.2zm0 0 25.44 9.32-21.64-39.56-3.8 30.26zm15-26.65 15.3 14.5-26.5-18.1zm10.44 35.97 4.86-21.47-26.5-18.1zm-21.64-39.56 11.2 3.6-13.63-10.88 2.44 7.28zm.3-29.4 7.76 16.27-7.24 1.9-.5-18.18zm7.76 21.14 3.14 11.86-13.63-10.88 10.5-.98zm-18.08-11.57 4.34 1 1.4-6.62zm4.34 1 6.5 7.6-5.1-14.22-1.4 6.63zm6.5 7.6-.5-18.18-4.6 3.96 5.1 14.2zm6.53-33.98.7 10.82-15.4 2.6 14.7-13.43zm-7.04 15.8 7.76-4.98-15.4 2.6 7.65 2.37zm-7.64-2.38 14.7-13.43-12.62-1.4-2.08 14.82zm-3.28 5.92 3.28-5.93-8.6-.66 5.32 6.58zm5.36-20.74-2.08 14.8-8.6-.64zm-10.67 14.16 10.67-14.16-18.52 7.33 7.85 6.84zm-7.85-6.83 7.85 6.84-5.14 16.64-2.7-23.47zm7.85 6.84 5.3 6.58-10.44 10.06zm-7.85-6.83 2.7 23.48-16.28-8.07 13.58-15.4zm2.7 23.48 5.43 5.57-5.42 5.1v-10.68zm11.07-4.04 4.34 1-2.7 5.35zm4.34 1 6.5 7.6-9.2-2.25 2.7-5.34zm-15.4 13.7-.43 6.43-7.83 4.44zm-16.29-18.75 16.3 8.08-16.3 6.72zm8.03 29.62 8.26-10.87-16.3-3.95zm8.26-10.87v-10.67l-16.3 6.72zm-16.3-18.74v14.8l-12.24-9.74 12.24-5.05zm-14.32 17.72 14.34-2.92-12.25-9.74-2.1 12.66zm0 0 14.34-2.92-6.46 4.78-7.87-1.86zm10.84 6.16 3.1-2.27-1.54 14.97zm9.73 9.6 4.3 2.73-12.47.37zm-10.8.57 1.07-10.17 1.56 12.7zm2.63 2.52 12.47-.36 5.76 13.06zm12.47-.36 16.8-4.86-11.04 17.92-5.76-13.05zm23.03 17.94 3.8-30.26-21.07 25.38zm-17.27-4.88 17.27 4.88-17.27 21zm-22.96 36.7 2.82-2.62-2.63 9.16-.2-6.55zm52.24 22.63-5.85-3.1 8.8.95-2.94 2.14zm-9.93-34.25-2.07-20.2-17.27 20.98zm0 0 .87 13.1-5.88 4.87 5-17.97zm3.58 22.1-3.45 4.33-2.96-4.9 6.4.57zm-22.92-21.32 19.34-.78-9.82 5.22zm19.34-.78-5 17.97-4.82-12.75zm-19.34-25.1v25.88l-8.26-9.37 8.26-16.5zm-18.26-12.68 18.23 12.7-15.6 4.3zm9.97 29.2 8.26-16.5-15.6 4.3zm5.66 35.63.9-5.5-9.62.55 8.73 4.95zm-18.26-67.35 1.07-10.17-4 1.13 2.93 9.05zm5.26 19.5-2.63-16.98-14.43 2.78zm-5.26-19.5 2.63 2.52-14.43 2.78zm5.26 19.5 7.34 12.2-12.9 5.5zm-17.06-14.2 17.06 14.2-5.55 17.7-11.5-31.9zm0 0 11.5 31.9-11.52-13.64.02-18.25zm11.5 31.9 12.9-5.5-3.06 5.12-9.82.37zm25.52 13.6-.1.1-4.3 3.53-1.3-6.45 5.7 2.83zm-.53 6-3.47 5.6-.4-7.97 3.87 2.38zm-36.5-51.5-.02 18.26-17.16-3.46 17.17-14.8zm-17.18 14.8 17.15 3.46-5.88 18.05-11.28-21.5zm-3.45 21.83 6.87 8.88-5.93 12.98-.95-21.86zm-22.78 23.31.75-24.17 23 22.7-23.76 1.48zm0 0 9.15 2.72 14.6-4.18-23.76 1.47zm.75-24.17 22.05.85.94 21.86-23-22.7zm22.05.85 6.87 8.88-4.37-21.4zm-8.32-20.17 11.76-1.66-.95 9.3-10.82-7.63zm15.2 29.06 7.84-9.2-12.22-12.2 4.37 21.4zm7.84-9.2-11.28-21.52-.95 9.3 12.22 12.2zm-7.85 9.2 7.85-9.2-.77 5.96zm7.85-9.2 5.88-18.05 11.53 13.64-17.4 4.4zm17.4-4.42 9.84-.37 1.27 12.1-11.1-11.73zm9.84-.37 10 11.16-8.73.93-1.26-12.1zm11.3 17.6-1.3-6.44-8.73.93 10.03 5.52zm-103.23-87.6 1.5-8.9 13.48 8.9zm1.5-8.9 19.1-1.45-5.62 10.36-13.47-8.9zm24.72 2.9-5.63-4.35-5.62 10.36 11.24-6.02zm54.27 97.63 2.62-9.16.9 8.25-3.53.9zm-20.53-46.72 1.03-5.96-11.93-4.96zm-18.3-2.58 7.4.8v-9.14zm19.33-3.38-10.73-12.97-1.2 8zm-19.7-14.64 7.77 9.68-2.34-13.25-5.43 3.58zm7.77 9.68 1.2-8-3.54-5.25 2.34 13.26zm4.2-12.9-3 4.9-3.54-5.25 6.53.36zm-3.33-3.88-5.33.67 2.13 2.86 3.2-3.52zm-20.64 19.35 5.22-6.62 4.45 10.14-9.67-3.5zm0 0 .24 7 9.43-3.5zm5.22-6.62h6.1l-1.65 10.14-4.45-10.13zm5.43 19.15 20.04-4.17-10.9-1.8-9.13 5.97zm9.14-15.1 10.9 10.93-10.9-1.8v-9.12zm-4.47-16.1-3.3 6.43 5.43-3.57-2.13-2.85zm66.44 69.48-4.17-.53.68-2.75.1-.1 3.4 3.38zm-3.5-3.28-.67 2.75-3.63.78zm-.43 5.9-3.87-2.37 3.63-.78.24 3.16zm10.5 1.47 5.87-4.87 4.55 8.26-10.44-3.38zm45.38-23.82-6.9 2.6-3.7-4.37zm-28.3 17.23-11.2 1.72-.88-13.1 12.1 11.38zm3.75-4.38-17.9-27.2 25.44 9.3zm-14.13-57.49-10 7.46-11.05 17.92zm0 0-10 7.46 3.6-10.26 6.43 2.8z" opacity=".25" stroke="url(#a)"/><g stroke="#5b6a72"><circle cx="578" cy="322" fill="#f1fcff" r="9"/><circle cx="479" cy="115" fill="#f1fcff" r="9"/><path d="m523 378a9 9 0 1 0 0-18 9 9 0 0 0 0 18zm254-187a9 9 0 1 0 0-18 9 9 0 0 0 0 18z" fill="#fdf4d7"/><circle cx="254" cy="348" fill="#fddad3" r="9"/><g><ellipse cx="154.47" cy="155.47" fill="#fdf4d7" rx="9.03" ry="9.32"/><ellipse cx="154.4" cy="155.46" fill="#fde699" rx="5.32" ry="5.49"/></g><g><circle cx="541.63" cy="124.47" fill="#fddad3" r="9.27"/><circle cx="541.55" cy="124.46" fill="#f7a696" r="5.49"/></g><g><circle cx="114.63" cy="88.47" fill="#fddad3" r="9.27"/><circle cx="114.55" cy="88.46" fill="#f7a696" r="5.49"/></g><g><path d="m494.5 246.92c5.03 0 9.12-4 9.12-8.94s-4.1-8.95-9.13-8.95c-5.06 0-9.14 4-9.14 8.95 0 4.94 4.08 8.94 9.13 8.94z" fill="#e7e4fb"/><path d="m494.54 243.46c3.03 0 5.5-2.4 5.5-5.37a5.44 5.44 0 0 0 -5.5-5.4c-3.04 0-5.5 2.42-5.5 5.4a5.44 5.44 0 0 0 5.5 5.36z" fill="#d0c8ff"/></g><g><circle cx="699.45" cy="112.58" fill="#f1fcff" r="9.17"/><ellipse cx="699.37" cy="112.57" fill="#dcf2f9" rx="5.49" ry="5.49"/></g><path d="m531 446a9 9 0 1 0 0-18 9 9 0 0 0 0 18zm-291 3a9 9 0 1 0 0-18 9 9 0 0 0 0 18zm625-40a9 9 0 1 0 0-18 9 9 0 0 0 0 18z" fill="#e7e4fb"/></g></g></svg>